{
  "accessors": [
    {
      "bufferView": 1,
      "componentType": 5126,
      "count": 65532,
      "max": [
        4.314647197723389,
        2.411355972290039,
        1.8725969791412354
      ],
      "min": [
        -1.3274710178375244,
        -4.168819904327393,
        -1.7229249477386475
      ],
      "type": "VEC3"
    },
    {
      "bufferView": 1,
      "byteOffset": 786384,
      "componentType": 5126,
      "count": 65532,
      "max": [
        0.999967098236084,
        0.9998629093170166,
        0.9999958872795105
      ],
      "min": [
        -0.9999695420265198,
        -0.9999997615814209,
        -0.9999998807907104
      ],
      "type": "VEC3"
    },
    {
      "bufferView": 2,
      "componentType": 5126,
      "count": 65532,
      "max": [
        1.0,
        1.0,
        1.0,
        1.0
      ],
      "min": [
        0.007842999882996082,
        0.007842999882996082,
        0.007842999882996082,
        1.0
      ],
      "type": "VEC4"
    },
    {
      "bufferView": 0,
      "componentType": 5125,
      "count": 343869,
      "type": "SCALAR"
    },
    {
      "bufferView": 1,
      "byteOffset": 1572768,
      "componentType": 5126,
      "count": 65532,
      "max": [
        2.872304916381836,
        2.2824389934539795,
        1.6942410469055176
      ],
      "min": [
        -2.0319089889526367,
        -4.044280052185059,
        -1.4762870073318481
      ],
      "type": "VEC3"
    },
    {
      "bufferView": 1,
      "byteOffset": 2359152,
      "componentType": 5126,
      "count": 65532,
      "max": [
        0.9999931454658508,
        0.9999582171440125,
        0.9998818635940552
      ],
      "min": [
        -0.999997615814209,
        -0.9998397827148438,
        -0.9999879002571106
      ],
      "type": "VEC3"
    },
    {
      "bufferView": 2,
      "byteOffset": 1048512,
      "componentType": 5126,
      "count": 65532,
      "max": [
        0.9960780143737793,
        0.9960780143737793,
        0.9960780143737793,
        1.0
      ],
      "min": [
        0.0,
        0.0,
        0.0,
        1.0
      ],
      "type": "VEC4"
    },
    {
      "bufferView": 0,
      "byteOffset": 1375476,
      "componentType": 5125,
      "count": 328188,
      "type": "SCALAR"
    },
    {
      "bufferView": 1,
      "byteOffset": 3145536,
      "componentType": 5126,
      "count": 65532,
      "max": [
        3.6453750133514404,
        2.402524948120117,
        1.7735029458999634
      ],
      "min": [
        -2.0309040546417236,
        -1.0836780071258545,
        -1.1566729545593262
      ],
      "type": "VEC3"
    },
    {
      "bufferView": 1,
      "byteOffset": 3931920,
      "componentType": 5126,
      "count": 65532,
      "max": [
        0.9999804496765137,
        0.9999582171440125,
        0.9999802112579346
      ],
      "min": [
        -0.9999209046363831,
        -0.9999998807907104,
        -1.0
      ],
      "type": "VEC3"
    },
    {
      "bufferView": 2,
      "byteOffset": 2097024,
      "componentType": 5126,
      "count": 65532,
      "max": [
        0.9960780143737793,
        0.9960780143737793,
        0.9960780143737793,
        1.0
      ],
      "min": [
        0.09803900122642517,
        0.09803900122642517,
        0.09803900122642517,
        1.0
      ],
      "type": "VEC4"
    },
    {
      "bufferView": 0,
      "byteOffset": 2688228,
      "componentType": 5125,
      "count": 325905,
      "type": "SCALAR"
    },
    {
      "bufferView": 1,
      "byteOffset": 4718304,
      "componentType": 5126,
      "count": 65532,
      "max": [
        4.390223979949951,
        2.409714937210083,
        1.8695189952850342
      ],
      "min": [
        -1.3229269981384277,
        -0.5086770057678223,
        -0.9276059865951538
      ],
      "type": "VEC3"
    },
    {
      "bufferView": 1,
      "byteOffset": 5504688,
      "componentType": 5126,
      "count": 65532,
      "max": [
        0.999963641166687,
        0.9987858533859253,
        0.9999614953994751
      ],
      "min": [
        -0.9999762177467346,
        -0.9999997615814209,
        -0.9999682307243347
      ],
      "type": "VEC3"
    },
    {
      "bufferView": 2,
      "byteOffset": 3145536,
      "componentType": 5126,
      "count": 65532,
      "max": [
        0.9960780143737793,
        0.9960780143737793,
        0.9960780143737793,
        1.0
      ],
      "min": [
        0.007842999882996082,
        0.007842999882996082,
        0.007842999882996082,
        1.0
      ],
      "type": "VEC4"
    },
    {
      "bufferView": 0,
      "byteOffset": 3991848,
      "componentType": 5125,
      "count": 324285,
      "type": "SCALAR"
    },
    {
      "bufferView": 1,
      "byteOffset": 6291072,
      "componentType": 5126,
      "count": 65532,
      "max": [
        4.358792781829834,
        2.4078209400177,
        1.631978988647461
      ],
      "min": [
        -2.001652956008911,
        -4.168819904327393,
        -1.7229249477386475
      ],
      "type": "VEC3"
    },
    {
      "bufferView": 1,
      "byteOffset": 7077456,
      "componentType": 5126,
      "count": 65532,
      "max": [
        0.9999940991401672,
        0.9999843835830688,
        0.9999823570251465
      ],
      "min": [
        -0.999980092048645,
        -0.999991238117218,
        -0.9999690055847168
      ],
      "type": "VEC3"
    },
    {
      "bufferView": 2,
      "byteOffset": 4194048,
      "componentType": 5126,
      "count": 65532,
      "max": [
        0.9960780143737793,
        0.9960780143737793,
        0.9960780143737793,
        1.0
      ],
      "min": [
        0.0,
        0.0,
        0.0,
        1.0
      ],
      "type": "VEC4"
    },
    {
      "bufferView": 0,
      "byteOffset": 5288988,
      "componentType": 5125,
      "count": 322497,
      "type": "SCALAR"
    },
    {
      "bufferView": 1,
      "byteOffset": 7863840,
      "componentType": 5126,
      "count": 62957,
      "max": [
        4.390223979949951,
        2.4072539806365967,
        1.8520230054855347
      ],
      "min": [
        -2.0312280654907227,
        -4.066964149475098,
        -1.6706329584121704
      ],
      "type": "VEC3"
    },
    {
      "bufferView": 1,
      "byteOffset": 8619324,
      "componentType": 5126,
      "count": 62957,
      "max": [
        0.9999940991401672,
        0.9999843835830688,
        0.9999035000801086
      ],
      "min": [
        -0.9999819993972778,
        -0.9999997615814209,
        -0.9999998807907104
      ],
      "type": "VEC3"
    },
    {
      "bufferView": 2,
      "byteOffset": 5242560,
      "componentType": 5126,
      "count": 62957,
      "max": [
        0.9960780143737793,
        0.9960780143737793,
        0.9960780143737793,
        1.0
      ],
      "min": [
        0.0,
        0.0,
        0.0,
        1.0
      ],
      "type": "VEC4"
    },
    {
      "bufferView": 0,
      "byteOffset": 6578976,
      "componentType": 5125,
      "count": 234954,
      "type": "SCALAR"
    }
  ],
  "asset": {
    "extras": {
      "author": "crlnvl (https://sketchfab.com/crlnvl)",
      "license": "CC-BY-SA-4.0 (http://creativecommons.org/licenses/by-sa/4.0/)",
      "source": "https://sketchfab.com/3d-models/herakles-archer-cdcf219befe5428d866221388761490a",
      "title": "Héraklès archer"
    },
    "generator": "Sketchfab-12.67.0",
    "version": "2.0"
  },
  "bufferViews": [
    {
      "buffer": 0,
      "byteLength": 7518792,
      "name": "floatBufferViews",
      "target": 34963
    },
    {
      "buffer": 0,
      "byteLength": 9374808,
      "byteOffset": 7518792,
      "byteStride": 12,
      "name": "floatBufferViews",
      "target": 34962
    },
    {
      "buffer": 0,
      "byteLength": 6249872,
      "byteOffset": 16893600,
      "byteStride": 16,
      "name": "floatBufferViews",
      "target": 34962
    }
  ],
  "buffers": [
    {
      "byteLength": 23143472,
      "uri": "scene.bin"
    }
  ],
  "materials": [
    {
      "doubleSided": true,
      "name": "material_0",
      "pbrMetallicRoughness": {
        "baseColorFactor": [
          0.5,
          0.5,
          0.5,
          1.0
        ],
        "metallicFactor": 0.0,
        "roughnessFactor": 0.6
      }
    }
  ],
  "meshes": [
    {
      "name": "Object_0",
      "primitives": [
        {
          "attributes": {
            "COLOR_0": 2,
            "NORMAL": 1,
            "POSITION": 0
          },
          "indices": 3,
          "material": 0,
          "mode": 4
        }
      ]
    },
    {
      "name": "Object_1",
      "primitives": [
        {
          "attributes": {
            "COLOR_0": 6,
            "NORMAL": 5,
            "POSITION": 4
          },
          "indices": 7,
          "material": 0,
          "mode": 4
        }
      ]
    },
    {
      "name": "Object_2",
      "primitives": [
        {
          "attributes": {
            "COLOR_0": 10,
            "NORMAL": 9,
            "POSITION": 8
          },
          "indices": 11,
          "material": 0,
          "mode": 4
        }
      ]
    },
    {
      "name": "Object_3",
      "primitives": [
        {
          "attributes": {
            "COLOR_0": 14,
            "NORMAL": 13,
            "POSITION": 12
          },
          "indices": 15,
          "material": 0,
          "mode": 4
        }
      ]
    },
    {
      "name": "Object_4",
      "primitives": [
        {
          "attributes": {
            "COLOR_0": 18,
            "NORMAL": 17,
            "POSITION": 16
          },
          "indices": 19,
          "material": 0,
          "mode": 4
        }
      ]
    },
    {
      "name": "Object_5",
      "primitives": [
        {
          "attributes": {
            "COLOR_0": 22,
            "NORMAL": 21,
            "POSITION": 20
          },
          "indices": 23,
          "material": 0,
          "mode": 4
        }
      ]
    }
  ],
  "nodes": [
    {
      "children": [
        1
      ],
      "matrix": [
        1.0,
        0.0,
        0.0,
        0.0,
        0.0,
        -1.0,
        -2.220446049250313e-16,
        0.0,
        0.0,
        2.220446049250313e-16,
        -1.0,
        0.0,
        0.0,
        -0.9012109637260438,
        0.7196885347366331,
        1.0
      ],
      "name": "Sketchfab_model"
    },
    {
      "children": [
        2,
        3,
        4,
        5,
        6,
        7
      ],
      "name": "ModelAO.obj.cleaner.gles"
    },
    {
      "mesh": 0,
      "name": "Object_2"
    },
    {
      "mesh": 1,
      "name": "Object_3"
    },
    {
      "mesh": 2,
      "name": "Object_4"
    },
    {
      "mesh": 3,
      "name": "Object_5"
    },
    {
      "mesh": 4,
      "name": "Object_6"
    },
    {
      "mesh": 5,
      "name": "Object_7"
    }
  ],
  "scene": 0,
  "scenes": [
    {
      "name": "Sketchfab_Scene",
      "nodes": [
        0
      ]
    }
  ]
}
