{
  "accessors": [
    {
      "bufferView": 2,
      "componentType": 5126,
      "count": 65532,
      "max": [
        0.37647199630737305,
        -0.7803429961204529,
        0.2921850085258484
      ],
      "min": [
        -0.41472598910331726,
        -2.5542171001434326,
        -0.3348259925842285
      ],
      "type": "VEC3"
    },
    {
      "bufferView": 2,
      "byteOffset": 786384,
      "componentType": 5126,
      "count": 65532,
      "max": [
        0.9999951124191284,
        1.0,
        0.9999998807907104
      ],
      "min": [
        -0.9999850988388062,
        -1.0,
        -0.9999997615814209
      ],
      "type": "VEC3"
    },
    {
      "bufferView": 3,
      "componentType": 5126,
      "count": 65532,
      "max": [
        0.9999908208847046,
        0.9999788999557495,
        0.9999988675117493,
        1.0
      ],
      "min": [
        -0.9999923706054688,
        -0.9999996423721313,
        -0.9999964833259583,
        -1.0
      ],
      "type": "VEC4"
    },
    {
      "bufferView": 1,
      "componentType": 5126,
      "count": 65532,
      "max": [
        0.9995120167732239,
        0.9868059754371643
      ],
      "min": [
        0.0004879999905824661,
        0.0004879999905824661
      ],
      "type": "VEC2"
    },
    {
      "bufferView": 0,
      "componentType": 5125,
      "count": 210348,
      "type": "SCALAR"
    },
    {
      "bufferView": 2,
      "byteOffset": 1572768,
      "componentType": 5126,
      "count": 44756,
      "max": [
        0.3788439929485321,
        -0.7803429961204529,
        0.2921850085258484
      ],
      "min": [
        -0.4231869876384735,
        -2.5540709495544434,
        -0.3345859944820404
      ],
      "type": "VEC3"
    },
    {
      "bufferView": 2,
      "byteOffset": 2109840,
      "componentType": 5126,
      "count": 44756,
      "max": [
        0.9999957084655762,
        0.9998225569725037,
        0.9999992847442627
      ],
      "min": [
        -0.9999837875366211,
        -0.9999972581863403,
        -0.9999998807907104
      ],
      "type": "VEC3"
    },
    {
      "bufferView": 3,
      "byteOffset": 1048512,
      "componentType": 5126,
      "count": 44756,
      "max": [
        0.999996542930603,
        0.9999960660934448,
        0.9999876022338867,
        1.0
      ],
      "min": [
        -0.9999986886978149,
        -0.9999993443489075,
        -0.9999978542327881,
        -1.0
      ],
      "type": "VEC4"
    },
    {
      "bufferView": 1,
      "byteOffset": 524256,
      "componentType": 5126,
      "count": 44756,
      "max": [
        0.9995120167732239,
        0.9842190146446228
      ],
      "min": [
        0.0005590000073425472,
        0.0005000000237487257
      ],
      "type": "VEC2"
    },
    {
      "bufferView": 0,
      "byteOffset": 841392,
      "componentType": 5125,
      "count": 133068,
      "type": "SCALAR"
    }
  ],
  "asset": {
    "extras": {
      "author": "Cleveland Museum of Art (https://sketchfab.com/clevelandart)",
      "license": "CC0-1.0 (http://creativecommons.org/publicdomain/zero/1.0/)",
      "source": "https://sketchfab.com/3d-models/1968212-terpsichore-lyran-6827af1276ab407ebbfa1e7d0a4b9a19",
      "title": "1968.212 Terpsichore Lyran"
    },
    "generator": "Sketchfab-15.30.0",
    "version": "2.0"
  },
  "bufferViews": [
    {
      "buffer": 0,
      "byteLength": 1373664,
      "name": "floatBufferViews",
      "target": 34963
    },
    {
      "buffer": 0,
      "byteLength": 882304,
      "byteOffset": 1373664,
      "byteStride": 8,
      "name": "floatBufferViews",
      "target": 34962
    },
    {
      "buffer": 0,
      "byteLength": 2646912,
      "byteOffset": 2255968,
      "byteStride": 12,
      "name": "floatBufferViews",
      "target": 34962
    },
    {
      "buffer": 0,
      "byteLength": 1764608,
      "byteOffset": 4902880,
      "byteStride": 16,
      "name": "floatBufferViews",
      "target": 34962
    }
  ],
  "buffers": [
    {
      "byteLength": 6667488,
      "uri": "scene.bin"
    }
  ],
  "images": [
    {
      "uri": "textures/Terpsichore_Mats_baseColor.jpeg"
    },
    {
      "uri": "textures/Terpsichore_Mats_metallicRoughness.png"
    },
    {
      "uri": "textures/Terpsichore_Mats_normal.png"
    }
  ],
  "materials": [
    {
      "doubleSided": true,
      "name": "Terpsichore_Mats",
      "normalTexture": {
        "index": 2
      },
      "pbrMetallicRoughness": {
        "baseColorTexture": {
          "index": 0
        },
        "metallicFactor": 0.0,
        "metallicRoughnessTexture": {
          "index": 1
        }
      }
    }
  ],
  "meshes": [
    {
      "name": "Object_0",
      "primitives": [
        {
          "attributes": {
            "NORMAL": 1,
            "POSITION": 0,
            "TANGENT": 2,
            "TEXCOORD_0": 3
          },
          "indices": 4,
          "material": 0,
          "mode": 4
        }
      ]
    },
    {
      "name": "Object_1",
      "primitives": [
        {
          "attributes": {
            "NORMAL": 6,
            "POSITION": 5,
            "TANGENT": 7,
            "TEXCOORD_0": 8
          },
          "indices": 9,
          "material": 0,
          "mode": 4
        }
      ]
    }
  ],
  "nodes": [
    {
      "children": [
        1
      ],
      "matrix": [
        -1.0,
        -2.2204460492503128e-16,
        -1.6081226229577296e-16,
        0.0,
        2.220446049250313e-16,
        -1.0,
        -6.661338147750939e-16,
        0.0,
        -1.6081226229577292e-16,
        -4.440892098500626e-16,
        1.0,
        0.0,
        0.0,
        0.0,
        0.0,
        1.0
      ],
      "name": "Sketchfab_model"
    },
    {
      "children": [
        2,
        3
      ],
      "name": "Terpsichore Lyran.obj.cleaner.materialmerger.gles"
    },
    {
      "mesh": 0,
      "name": "Object_2"
    },
    {
      "mesh": 1,
      "name": "Object_3"
    }
  ],
  "samplers": [
    {
      "magFilter": 9729,
      "minFilter": 9987,
      "wrapS": 10497,
      "wrapT": 10497
    }
  ],
  "scene": 0,
  "scenes": [
    {
      "name": "Sketchfab_Scene",
      "nodes": [
        0
      ]
    }
  ],
  "textures": [
    {
      "sampler": 0,
      "source": 0
    },
    {
      "sampler": 0,
      "source": 1
    },
    {
      "sampler": 0,
      "source": 2
    }
  ]
}
