{
  "accessors": [
    {
      "bufferView": 1,
      "componentType": 5126,
      "count": 65532,
      "max": [
        118.00727844238281,
        65.09925079345703,
        161.80030822753906
      ],
      "min": [
        0.021547317504882813,
        0.0,
        0.0
      ],
      "type": "VEC3"
    },
    {
      "bufferView": 1,
      "byteOffset": 786384,
      "componentType": 5126,
      "count": 65532,
      "max": [
        0.9999940991401672,
        1.0,
        0.9999954700469971
      ],
      "min": [
        -0.9999815821647644,
        -1.0,
        -1.0
      ],
      "type": "VEC3"
    },
    {
      "bufferView": 0,
      "componentType": 5125,
      "count": 305004,
      "type": "SCALAR"
    },
    {
      "bufferView": 1,
      "byteOffset": 1572768,
      "componentType": 5126,
      "count": 65532,
      "max": [
        105.48460388183594,
        70.8842544555664,
        81.80018615722656
      ],
      "min": [
        18.64849853515625,
        16.209245681762695,
        6.680339813232422
      ],
      "type": "VEC3"
    },
    {
      "bufferView": 1,
      "byteOffset": 2359152,
      "componentType": 5126,
      "count": 65532,
      "max": [
        0.9999949932098389,
        0.9999935030937195,
        0.9999019503593445
      ],
      "min": [
        -0.9999937415122986,
        -0.9999816417694092,
        -0.9999976754188538
      ],
      "type": "VEC3"
    },
    {
      "bufferView": 0,
      "byteOffset": 1220016,
      "componentType": 5125,
      "count": 331293,
      "type": "SCALAR"
    },
    {
      "bufferView": 1,
      "byteOffset": 3145536,
      "componentType": 5126,
      "count": 65532,
      "max": [
        125.83946228027344,
        61.833248138427734,
        135.62673950195313
      ],
      "min": [
        0.0,
        6.427247047424316,
        0.002429962158203125
      ],
      "type": "VEC3"
    },
    {
      "bufferView": 1,
      "byteOffset": 3931920,
      "componentType": 5126,
      "count": 65532,
      "max": [
        0.9998918175697327,
        0.999995231628418,
        0.9999979734420776
      ],
      "min": [
        -0.9999706149101257,
        -0.9999918937683105,
        -0.9998086094856262
      ],
      "type": "VEC3"
    },
    {
      "bufferView": 0,
      "byteOffset": 2545188,
      "componentType": 5125,
      "count": 326487,
      "type": "SCALAR"
    },
    {
      "bufferView": 1,
      "byteOffset": 4718304,
      "componentType": 5126,
      "count": 65532,
      "max": [
        125.96455383300781,
        69.56424713134766,
        161.12620544433594
      ],
      "min": [
        5.699098587036133,
        0.0,
        0.0036163330078125
      ],
      "type": "VEC3"
    },
    {
      "bufferView": 1,
      "byteOffset": 5504688,
      "componentType": 5126,
      "count": 65532,
      "max": [
        0.9999967813491821,
        0.999995231628418,
        0.9999940991401672
      ],
      "min": [
        -0.9999375939369202,
        -0.9999422430992126,
        -0.9999732375144958
      ],
      "type": "VEC3"
    },
    {
      "bufferView": 0,
      "byteOffset": 3851136,
      "componentType": 5125,
      "count": 321939,
      "type": "SCALAR"
    },
    {
      "bufferView": 1,
      "byteOffset": 6291072,
      "componentType": 5126,
      "count": 65532,
      "max": [
        125.94248962402344,
        64.4312515258789,
        111.51229858398438
      ],
      "min": [
        2.4158458709716797,
        1.515248417854309,
        0.00260162353515625
      ],
      "type": "VEC3"
    },
    {
      "bufferView": 1,
      "byteOffset": 7077456,
      "componentType": 5126,
      "count": 65532,
      "max": [
        0.9999949932098389,
        0.9999908804893494,
        0.9999997019767761
      ],
      "min": [
        -0.9999635815620422,
        -0.9999988079071045,
        -0.9999745488166809
      ],
      "type": "VEC3"
    },
    {
      "bufferView": 0,
      "byteOffset": 5138892,
      "componentType": 5125,
      "count": 315861,
      "type": "SCALAR"
    },
    {
      "bufferView": 1,
      "byteOffset": 7863840,
      "componentType": 5126,
      "count": 65532,
      "max": [
        124.01358032226563,
        72.00824737548828,
        145.35520935058594
      ],
      "min": [
        0.0,
        1.5352450609207153,
        0.002582550048828125
      ],
      "type": "VEC3"
    },
    {
      "bufferView": 1,
      "byteOffset": 8650224,
      "componentType": 5126,
      "count": 65532,
      "max": [
        0.9999770522117615,
        0.999955952167511,
        0.9999983906745911
      ],
      "min": [
        -0.9999629855155945,
        -0.9999821186065674,
        -0.9999709725379944
      ],
      "type": "VEC3"
    },
    {
      "bufferView": 0,
      "byteOffset": 6402336,
      "componentType": 5125,
      "count": 278742,
      "type": "SCALAR"
    },
    {
      "bufferView": 1,
      "byteOffset": 9436608,
      "componentType": 5126,
      "count": 65533,
      "max": [
        123.35232543945313,
        71.8012466430664,
        107.96360778808594
      ],
      "min": [
        3.110990524291992,
        6.072246551513672,
        0.00319671630859375
      ],
      "type": "VEC3"
    },
    {
      "bufferView": 1,
      "byteOffset": 10223004,
      "componentType": 5126,
      "count": 65533,
      "max": [
        0.9999918341636658,
        0.9999707341194153,
        0.9999991059303284
      ],
      "min": [
        -0.9999937415122986,
        -0.9999816417694092,
        -0.9997143149375916
      ],
      "type": "VEC3"
    },
    {
      "bufferView": 0,
      "byteOffset": 7517304,
      "componentType": 5125,
      "count": 287001,
      "type": "SCALAR"
    },
    {
      "bufferView": 1,
      "byteOffset": 11009400,
      "componentType": 5126,
      "count": 65532,
      "max": [
        125.88752746582031,
        72.1082534790039,
        159.7958526611328
      ],
      "min": [
        0.0705108642578125,
        0.9955469369888306,
        0.001708984375
      ],
      "type": "VEC3"
    },
    {
      "bufferView": 1,
      "byteOffset": 11795784,
      "componentType": 5126,
      "count": 65532,
      "max": [
        0.9999967813491821,
        0.999955952167511,
        0.9999983906745911
      ],
      "min": [
        -0.9999117255210876,
        -0.9999982118606567,
        -0.9999976754188538
      ],
      "type": "VEC3"
    },
    {
      "bufferView": 0,
      "byteOffset": 8665308,
      "componentType": 5125,
      "count": 201804,
      "type": "SCALAR"
    },
    {
      "bufferView": 1,
      "byteOffset": 12582168,
      "componentType": 5126,
      "count": 10867,
      "max": [
        120.50486755371094,
        60.39025115966797,
        151.98696899414063
      ],
      "min": [
        2.455230712890625,
        1.616245150566101,
        0.001461029052734375
      ],
      "type": "VEC3"
    },
    {
      "bufferView": 1,
      "byteOffset": 12712572,
      "componentType": 5126,
      "count": 10867,
      "max": [
        0.9998586177825928,
        0.9999938607215881,
        0.9999975562095642
      ],
      "min": [
        -0.9999629855155945,
        -0.9993197321891785,
        -0.9994255900382996
      ],
      "type": "VEC3"
    },
    {
      "bufferView": 0,
      "byteOffset": 9472524,
      "componentType": 5125,
      "count": 26955,
      "type": "SCALAR"
    }
  ],
  "asset": {
    "extras": {
      "author": "pattarrian (https://sketchfab.com/pattarrian)",
      "license": "CC-BY-4.0 (http://creativecommons.org/licenses/by/4.0/)",
      "source": "https://sketchfab.com/3d-models/hercule-combattant-archelous-364b85be74b64e4b8c25f8ab162d82f8",
      "title": "Hercule combattant Archeloüs"
    },
    "generator": "Sketchfab-12.66.0",
    "version": "2.0"
  },
  "bufferViews": [
    {
      "buffer": 0,
      "byteLength": 9580344,
      "name": "floatBufferViews",
      "target": 34963
    },
    {
      "buffer": 0,
      "byteLength": 12842976,
      "byteOffset": 9580344,
      "byteStride": 12,
      "name": "floatBufferViews",
      "target": 34962
    }
  ],
  "buffers": [
    {
      "byteLength": 22423320,
      "uri": "scene.bin"
    }
  ],
  "materials": [
    {
      "doubleSided": true,
      "name": "Scene_-_Root",
      "pbrMetallicRoughness": {
        "metallicFactor": 0.0,
        "roughnessFactor": 0.6
      }
    }
  ],
  "meshes": [
    {
      "name": "Object_0",
      "primitives": [
        {
          "attributes": {
            "NORMAL": 1,
            "POSITION": 0
          },
          "indices": 2,
          "material": 0,
          "mode": 4
        }
      ]
    },
    {
      "name": "Object_1",
      "primitives": [
        {
          "attributes": {
            "NORMAL": 4,
            "POSITION": 3
          },
          "indices": 5,
          "material": 0,
          "mode": 4
        }
      ]
    },
    {
      "name": "Object_2",
      "primitives": [
        {
          "attributes": {
            "NORMAL": 7,
            "POSITION": 6
          },
          "indices": 8,
          "material": 0,
          "mode": 4
        }
      ]
    },
    {
      "name": "Object_3",
      "primitives": [
        {
          "attributes": {
            "NORMAL": 10,
            "POSITION": 9
          },
          "indices": 11,
          "material": 0,
          "mode": 4
        }
      ]
    },
    {
      "name": "Object_4",
      "primitives": [
        {
          "attributes": {
            "NORMAL": 13,
            "POSITION": 12
          },
          "indices": 14,
          "material": 0,
          "mode": 4
        }
      ]
    },
    {
      "name": "Object_5",
      "primitives": [
        {
          "attributes": {
            "NORMAL": 16,
            "POSITION": 15
          },
          "indices": 17,
          "material": 0,
          "mode": 4
        }
      ]
    },
    {
      "name": "Object_6",
      "primitives": [
        {
          "attributes": {
            "NORMAL": 19,
            "POSITION": 18
          },
          "indices": 20,
          "material": 0,
          "mode": 4
        }
      ]
    },
    {
      "name": "Object_7",
      "primitives": [
        {
          "attributes": {
            "NORMAL": 22,
            "POSITION": 21
          },
          "indices": 23,
          "material": 0,
          "mode": 4
        }
      ]
    },
    {
      "name": "Object_8",
      "primitives": [
        {
          "attributes": {
            "NORMAL": 25,
            "POSITION": 24
          },
          "indices": 26,
          "material": 0,
          "mode": 4
        }
      ]
    }
  ],
  "nodes": [
    {
      "children": [
        1
      ],
      "matrix": [
        1.0,
        0.0,
        0.0,
        0.0,
        0.0,
        2.220446049250313e-16,
        -1.0,
        0.0,
        0.0,
        1.0,
        2.220446049250313e-16,
        0.0,
        0.0,
        0.0,
        0.0,
        1.0
      ],
      "name": "Sketchfab_model"
    },
    {
      "children": [
        2,
        3,
        4,
        5,
        6,
        7,
        8,
        9,
        10
      ],
      "matrix": [
        1.0,
        0.0,
        0.0,
        0.0,
        0.0,
        1.0,
        0.0,
        0.0,
        0.0,
        0.0,
        1.0,
        0.0,
        16.244186401367188,
        -2.9603347778320313,
        41.00949478149414,
        1.0
      ],
      "name": "Hercule.stl.cleaner.materialmerger.gles"
    },
    {
      "mesh": 0,
      "name": "Object_2"
    },
    {
      "mesh": 1,
      "name": "Object_3"
    },
    {
      "mesh": 2,
      "name": "Object_4"
    },
    {
      "mesh": 3,
      "name": "Object_5"
    },
    {
      "mesh": 4,
      "name": "Object_6"
    },
    {
      "mesh": 5,
      "name": "Object_7"
    },
    {
      "mesh": 6,
      "name": "Object_8"
    },
    {
      "mesh": 7,
      "name": "Object_9"
    },
    {
      "mesh": 8,
      "name": "Object_10"
    }
  ],
  "scene": 0,
  "scenes": [
    {
      "name": "Sketchfab_Scene",
      "nodes": [
        0
      ]
    }
  ]
}
