{
  "accessors": [
    {
      "bufferView": 2,
      "componentType": 5126,
      "count": 65532,
      "max": [
        1.3732099533081055,
        2.949526071548462,
        7.677700996398926
      ],
      "min": [
        -0.671966016292572,
        0.6488109827041626,
        4.067140102386475
      ],
      "type": "VEC3"
    },
    {
      "bufferView": 2,
      "byteOffset": 786384,
      "componentType": 5126,
      "count": 65532,
      "max": [
        0.9999880790710449,
        0.9999265074729919,
        0.9999176859855652
      ],
      "min": [
        -0.9999561905860901,
        -0.9999951124191284,
        -0.9997867345809937
      ],
      "type": "VEC3"
    },
    {
      "bufferView": 1,
      "componentType": 5126,
      "count": 65532,
      "max": [
        0.9911530017852783,
        0.9960389733314514
      ],
      "min": [
        0.005485000088810921,
        0.004023000132292509
      ],
      "type": "VEC2"
    },
    {
      "bufferView": 0,
      "componentType": 5125,
      "count": 342519,
      "type": "SCALAR"
    },
    {
      "bufferView": 2,
      "byteOffset": 1572768,
      "componentType": 5126,
      "count": 65532,
      "max": [
        1.3925509452819824,
        2.900904893875122,
        8.803550720214844
      ],
      "min": [
        -0.9340260028839111,
        0.6725929975509644,
        4.100374221801758
      ],
      "type": "VEC3"
    },
    {
      "bufferView": 2,
      "byteOffset": 2359152,
      "componentType": 5126,
      "count": 65532,
      "max": [
        0.9999921321868896,
        0.9999738931655884,
        0.999711811542511
      ],
      "min": [
        -0.9999883770942688,
        -0.9999812841415405,
        -0.9993329048156738
      ],
      "type": "VEC3"
    },
    {
      "bufferView": 1,
      "byteOffset": 524256,
      "componentType": 5126,
      "count": 65532,
      "max": [
        0.991195023059845,
        0.996192991733551
      ],
      "min": [
        0.00496200006455183,
        0.0040710000321269035
      ],
      "type": "VEC2"
    },
    {
      "bufferView": 0,
      "byteOffset": 1370076,
      "componentType": 5125,
      "count": 327507,
      "type": "SCALAR"
    },
    {
      "bufferView": 2,
      "byteOffset": 3145536,
      "componentType": 5126,
      "count": 65532,
      "max": [
        1.3810060024261475,
        2.9349091053009033,
        9.706681251525879
      ],
      "min": [
        -1.0439870357513428,
        0.5966309905052185,
        4.1372199058532715
      ],
      "type": "VEC3"
    },
    {
      "bufferView": 2,
      "byteOffset": 3931920,
      "componentType": 5126,
      "count": 65532,
      "max": [
        0.9999988675117493,
        0.9999931454658508,
        0.9998843669891357
      ],
      "min": [
        -0.9999510645866394,
        -0.9999596476554871,
        -0.9999291896820068
      ],
      "type": "VEC3"
    },
    {
      "bufferView": 1,
      "byteOffset": 1048512,
      "componentType": 5126,
      "count": 65532,
      "max": [
        0.9895359873771667,
        0.9953849911689758
      ],
      "min": [
        0.0032999999821186066,
        0.005874000024050474
      ],
      "type": "VEC2"
    },
    {
      "bufferView": 0,
      "byteOffset": 2680104,
      "componentType": 5125,
      "count": 326352,
      "type": "SCALAR"
    },
    {
      "bufferView": 2,
      "byteOffset": 4718304,
      "componentType": 5126,
      "count": 65532,
      "max": [
        1.3818659782409668,
        2.5275959968566895,
        10.787205696105957
      ],
      "min": [
        -1.0306940078735352,
        0.5089179873466492,
        4.344594955444336
      ],
      "type": "VEC3"
    },
    {
      "bufferView": 2,
      "byteOffset": 5504688,
      "componentType": 5126,
      "count": 65532,
      "max": [
        0.9999952912330627,
        0.9999953508377075,
        0.9998908042907715
      ],
      "min": [
        -0.9999806880950928,
        -0.9999591112136841,
        -0.999965488910675
      ],
      "type": "VEC3"
    },
    {
      "bufferView": 1,
      "byteOffset": 1572768,
      "componentType": 5126,
      "count": 65532,
      "max": [
        0.9902849793434143,
        0.994799017906189
      ],
      "min": [
        0.004875999875366688,
        0.003837999887764454
      ],
      "type": "VEC2"
    },
    {
      "bufferView": 0,
      "byteOffset": 3985512,
      "componentType": 5125,
      "count": 332532,
      "type": "SCALAR"
    },
    {
      "bufferView": 2,
      "byteOffset": 6291072,
      "componentType": 5126,
      "count": 34562,
      "max": [
        1.4026919603347778,
        2.9484570026397705,
        8.106546401977539
      ],
      "min": [
        -0.8604900240898132,
        0.6916360259056091,
        4.264671802520752
      ],
      "type": "VEC3"
    },
    {
      "bufferView": 2,
      "byteOffset": 6705816,
      "componentType": 5126,
      "count": 34562,
      "max": [
        0.999965488910675,
        0.9999718070030212,
        0.9998868107795715
      ],
      "min": [
        -0.9999791383743286,
        -0.9998779296875,
        -0.9990308284759521
      ],
      "type": "VEC3"
    },
    {
      "bufferView": 1,
      "byteOffset": 2097024,
      "componentType": 5126,
      "count": 34562,
      "max": [
        0.9913179874420166,
        0.9960659742355347
      ],
      "min": [
        0.004443000070750713,
        0.0040710000321269035
      ],
      "type": "VEC2"
    },
    {
      "bufferView": 0,
      "byteOffset": 5315640,
      "componentType": 5125,
      "count": 147834,
      "type": "SCALAR"
    }
  ],
  "asset": {
    "extras": {
      "author": "Benoît Rogez (https://sketchfab.com/shadows44)",
      "license": "CC-BY-NC-4.0 (http://creativecommons.org/licenses/by-nc/4.0/)",
      "source": "https://sketchfab.com/3d-models/femme-voilee-la-foi-antonio-corradini-d4b08e18198043ba8c3a9668089f0296",
      "title": "Femme voilée (la Foi ?) - Antonio Corradini"
    },
    "generator": "Sketchfab-12.67.0",
    "version": "2.0"
  },
  "bufferViews": [
    {
      "buffer": 0,
      "byteLength": 5906976,
      "name": "floatBufferViews",
      "target": 34963
    },
    {
      "buffer": 0,
      "byteLength": 2373520,
      "byteOffset": 5906976,
      "byteStride": 8,
      "name": "floatBufferViews",
      "target": 34962
    },
    {
      "buffer": 0,
      "byteLength": 7120560,
      "byteOffset": 8280496,
      "byteStride": 12,
      "name": "floatBufferViews",
      "target": 34962
    }
  ],
  "buffers": [
    {
      "byteLength": 15401056,
      "uri": "scene.bin"
    }
  ],
  "extensionsUsed": [
    "KHR_materials_unlit"
  ],
  "images": [
    {
      "uri": "textures/model_baseColor.jpeg"
    }
  ],
  "materials": [
    {
      "doubleSided": true,
      "extensions": {
        "KHR_materials_unlit": {}
      },
      "name": "model",
      "pbrMetallicRoughness": {
        "baseColorTexture": {
          "index": 0
        },
        "metallicFactor": 0.0
      }
    }
  ],
  "meshes": [
    {
      "name": "Object_0",
      "primitives": [
        {
          "attributes": {
            "NORMAL": 1,
            "POSITION": 0,
            "TEXCOORD_0": 2
          },
          "indices": 3,
          "material": 0,
          "mode": 4
        }
      ]
    },
    {
      "name": "Object_1",
      "primitives": [
        {
          "attributes": {
            "NORMAL": 5,
            "POSITION": 4,
            "TEXCOORD_0": 6
          },
          "indices": 7,
          "material": 0,
          "mode": 4
        }
      ]
    },
    {
      "name": "Object_2",
      "primitives": [
        {
          "attributes": {
            "NORMAL": 9,
            "POSITION": 8,
            "TEXCOORD_0": 10
          },
          "indices": 11,
          "material": 0,
          "mode": 4
        }
      ]
    },
    {
      "name": "Object_3",
      "primitives": [
        {
          "attributes": {
            "NORMAL": 13,
            "POSITION": 12,
            "TEXCOORD_0": 14
          },
          "indices": 15,
          "material": 0,
          "mode": 4
        }
      ]
    },
    {
      "name": "Object_4",
      "primitives": [
        {
          "attributes": {
            "NORMAL": 17,
            "POSITION": 16,
            "TEXCOORD_0": 18
          },
          "indices": 19,
          "material": 0,
          "mode": 4
        }
      ]
    }
  ],
  "nodes": [
    {
      "children": [
        1
      ],
      "matrix": [
        1.0,
        0.0,
        0.0,
        0.0,
        0.0,
        2.220446049250313e-16,
        -1.0,
        0.0,
        0.0,
        1.0,
        2.220446049250313e-16,
        0.0,
        0.0,
        0.0,
        0.0,
        1.0
      ],
      "name": "Sketchfab_model"
    },
    {
      "children": [
        2,
        3,
        4,
        5,
        6
      ],
      "name": "model.obj.cleaner.materialmerger.gles"
    },
    {
      "mesh": 0,
      "name": "Object_2"
    },
    {
      "mesh": 1,
      "name": "Object_3"
    },
    {
      "mesh": 2,
      "name": "Object_4"
    },
    {
      "mesh": 3,
      "name": "Object_5"
    },
    {
      "mesh": 4,
      "name": "Object_6"
    }
  ],
  "samplers": [
    {
      "magFilter": 9729,
      "minFilter": 9987,
      "wrapS": 10497,
      "wrapT": 10497
    }
  ],
  "scene": 0,
  "scenes": [
    {
      "name": "Sketchfab_Scene",
      "nodes": [
        0
      ]
    }
  ],
  "textures": [
    {
      "sampler": 0,
      "source": 0
    }
  ]
}
