{
  "accessors": [
    {
      "bufferView": 2,
      "componentType": 5126,
      "count": 65532,
      "max": [
        40.19050598144531,
        17.556861877441406,
        17.990615844726563
      ],
      "min": [
        7.002601623535156,
        3.2902469635009766,
        1.55059814453125
      ],
      "type": "VEC3"
    },
    {
      "bufferView": 2,
      "byteOffset": 786384,
      "componentType": 5126,
      "count": 65532,
      "max": [
        0.9922658801078796,
        0.9995332360267639,
        0.9999653697013855
      ],
      "min": [
        -0.9999686479568481,
        -0.9999989867210388,
        -0.99992436170578
      ],
      "type": "VEC3"
    },
    {
      "bufferView": 1,
      "componentType": 5126,
      "count": 65532,
      "max": [
        0.9960939884185791,
        0.995041012763977
      ],
      "min": [
        0.0029299999587237835,
        0.003306000027805567
      ],
      "type": "VEC2"
    },
    {
      "bufferView": 0,
      "componentType": 5125,
      "count": 354636,
      "type": "SCALAR"
    },
    {
      "bufferView": 2,
      "byteOffset": 1572768,
      "componentType": 5126,
      "count": 65532,
      "max": [
        29.43734359741211,
        17.53846549987793,
        15.059638977050781
      ],
      "min": [
        9.577171325683594,
        8.37458324432373,
        0.0
      ],
      "type": "VEC3"
    },
    {
      "bufferView": 2,
      "byteOffset": 2359152,
      "componentType": 5126,
      "count": 65532,
      "max": [
        0.999122142791748,
        0.9999359846115112,
        0.99992835521698
      ],
      "min": [
        -0.9999614953994751,
        -0.999997615814209,
        -0.999993622303009
      ],
      "type": "VEC3"
    },
    {
      "bufferView": 1,
      "byteOffset": 524256,
      "componentType": 5126,
      "count": 65532,
      "max": [
        0.9980469942092896,
        0.995041012763977
      ],
      "min": [
        0.0029299999587237835,
        0.003306000027805567
      ],
      "type": "VEC2"
    },
    {
      "bufferView": 0,
      "byteOffset": 1418544,
      "componentType": 5125,
      "count": 349545,
      "type": "SCALAR"
    },
    {
      "bufferView": 2,
      "byteOffset": 3145536,
      "componentType": 5126,
      "count": 65532,
      "max": [
        47.634037017822266,
        18.301326751708984,
        156.2697296142578
      ],
      "min": [
        0.0,
        4.363994598388672,
        0.1337738037109375
      ],
      "type": "VEC3"
    },
    {
      "bufferView": 2,
      "byteOffset": 3931920,
      "componentType": 5126,
      "count": 65532,
      "max": [
        0.9996706247329712,
        0.998601496219635,
        0.9999704957008362
      ],
      "min": [
        -0.9998089075088501,
        -1.0,
        -0.9999931454658508
      ],
      "type": "VEC3"
    },
    {
      "bufferView": 1,
      "byteOffset": 1048512,
      "componentType": 5126,
      "count": 65532,
      "max": [
        0.9980469942092896,
        0.996694028377533
      ],
      "min": [
        0.0019529999699443579,
        0.003306000027805567
      ],
      "type": "VEC2"
    },
    {
      "bufferView": 0,
      "byteOffset": 2816724,
      "componentType": 5125,
      "count": 352311,
      "type": "SCALAR"
    },
    {
      "bufferView": 2,
      "byteOffset": 4718304,
      "componentType": 5126,
      "count": 65532,
      "max": [
        33.70148468017578,
        17.58696174621582,
        18.753211975097656
      ],
      "min": [
        0.8253173828125,
        0.0,
        2.2212142944335938
      ],
      "type": "VEC3"
    },
    {
      "bufferView": 2,
      "byteOffset": 5504688,
      "componentType": 5126,
      "count": 65532,
      "max": [
        0.9998993873596191,
        0.9998984932899475,
        0.9999897480010986
      ],
      "min": [
        -0.9999906420707703,
        -0.9999998807907104,
        -0.999986469745636
      ],
      "type": "VEC3"
    },
    {
      "bufferView": 1,
      "byteOffset": 1572768,
      "componentType": 5126,
      "count": 65532,
      "max": [
        0.9980469942092896,
        0.996694028377533
      ],
      "min": [
        0.0019529999699443579,
        0.003306000027805567
      ],
      "type": "VEC2"
    },
    {
      "bufferView": 0,
      "byteOffset": 4225968,
      "componentType": 5125,
      "count": 345777,
      "type": "SCALAR"
    },
    {
      "bufferView": 2,
      "byteOffset": 6291072,
      "componentType": 5126,
      "count": 18779,
      "max": [
        9.952348709106445,
        17.547597885131836,
        18.72295379638672
      ],
      "min": [
        0.0,
        8.476249694824219,
        9.62286376953125
      ],
      "type": "VEC3"
    },
    {
      "bufferView": 2,
      "byteOffset": 6516420,
      "componentType": 5126,
      "count": 18779,
      "max": [
        0.9971217513084412,
        0.9999566674232483,
        0.9999972581863403
      ],
      "min": [
        -0.9999178647994995,
        -0.9999927878379822,
        -0.9975363612174988
      ],
      "type": "VEC3"
    },
    {
      "bufferView": 1,
      "byteOffset": 2097024,
      "componentType": 5126,
      "count": 18779,
      "max": [
        0.9921879768371582,
        0.996694028377533
      ],
      "min": [
        0.0019529999699443579,
        0.008438999764621258
      ],
      "type": "VEC2"
    },
    {
      "bufferView": 0,
      "byteOffset": 5609076,
      "componentType": 5125,
      "count": 97731,
      "type": "SCALAR"
    }
  ],
  "asset": {
    "extras": {
      "author": "kait lippe (https://sketchfab.com/kaitlippe)",
      "license": "CC-BY-4.0 (http://creativecommons.org/licenses/by/4.0/)",
      "source": "https://sketchfab.com/3d-models/statue-at-musee-dorsay-9b6b3d68ae744b60a729d941ec3222ea",
      "title": "Statue At Musée d'Orsay"
    },
    "generator": "Sketchfab-12.67.0",
    "version": "2.0"
  },
  "bufferViews": [
    {
      "buffer": 0,
      "byteLength": 6000000,
      "name": "floatBufferViews",
      "target": 34963
    },
    {
      "buffer": 0,
      "byteLength": 2247256,
      "byteOffset": 6000000,
      "byteStride": 8,
      "name": "floatBufferViews",
      "target": 34962
    },
    {
      "buffer": 0,
      "byteLength": 6741768,
      "byteOffset": 8247256,
      "byteStride": 12,
      "name": "floatBufferViews",
      "target": 34962
    }
  ],
  "buffers": [
    {
      "byteLength": 14989024,
      "uri": "scene.bin"
    }
  ],
  "extensionsUsed": [
    "KHR_materials_unlit"
  ],
  "images": [
    {
      "uri": "textures/Material_0_baseColor.jpeg"
    }
  ],
  "materials": [
    {
      "doubleSided": true,
      "extensions": {
        "KHR_materials_unlit": {}
      },
      "name": "Material_0",
      "pbrMetallicRoughness": {
        "baseColorTexture": {
          "index": 0
        },
        "metallicFactor": 0.0
      }
    }
  ],
  "meshes": [
    {
      "name": "Object_0",
      "primitives": [
        {
          "attributes": {
            "NORMAL": 1,
            "POSITION": 0,
            "TEXCOORD_0": 2
          },
          "indices": 3,
          "material": 0,
          "mode": 4
        }
      ]
    },
    {
      "name": "Object_1",
      "primitives": [
        {
          "attributes": {
            "NORMAL": 5,
            "POSITION": 4,
            "TEXCOORD_0": 6
          },
          "indices": 7,
          "material": 0,
          "mode": 4
        }
      ]
    },
    {
      "name": "Object_2",
      "primitives": [
        {
          "attributes": {
            "NORMAL": 9,
            "POSITION": 8,
            "TEXCOORD_0": 10
          },
          "indices": 11,
          "material": 0,
          "mode": 4
        }
      ]
    },
    {
      "name": "Object_3",
      "primitives": [
        {
          "attributes": {
            "NORMAL": 13,
            "POSITION": 12,
            "TEXCOORD_0": 14
          },
          "indices": 15,
          "material": 0,
          "mode": 4
        }
      ]
    },
    {
      "name": "Object_4",
      "primitives": [
        {
          "attributes": {
            "NORMAL": 17,
            "POSITION": 16,
            "TEXCOORD_0": 18
          },
          "indices": 19,
          "material": 0,
          "mode": 4
        }
      ]
    }
  ],
  "nodes": [
    {
      "children": [
        1
      ],
      "matrix": [
        -0.9630183577537537,
        -0.015051889233291208,
        0.26901501417160034,
        0.0,
        -2.498001805406602e-16,
        -0.9984383583068848,
        -0.05586448311805747,
        0.0,
        0.2694357633590698,
        -0.05379852280020735,
        0.9615144729614258,
        0.0,
        -0.00928100012242794,
        -10.964484214782717,
        10.36935520172119,
        1.0
      ],
      "name": "Sketchfab_model"
    },
    {
      "children": [
        2,
        3,
        4,
        5,
        6
      ],
      "matrix": [
        1.0,
        0.0,
        0.0,
        0.0,
        0.0,
        1.0,
        0.0,
        0.0,
        0.0,
        0.0,
        1.0,
        0.0,
        -23.821697235107422,
        -20.132568359375,
        -78.13436889648438,
        1.0
      ],
      "name": "statueAtOrsay.obj.cleaner.gles"
    },
    {
      "mesh": 0,
      "name": "Object_2"
    },
    {
      "mesh": 1,
      "name": "Object_3"
    },
    {
      "mesh": 2,
      "name": "Object_4"
    },
    {
      "mesh": 3,
      "name": "Object_5"
    },
    {
      "mesh": 4,
      "name": "Object_6"
    }
  ],
  "samplers": [
    {
      "magFilter": 9729,
      "minFilter": 9987,
      "wrapS": 10497,
      "wrapT": 10497
    }
  ],
  "scene": 0,
  "scenes": [
    {
      "name": "Sketchfab_Scene",
      "nodes": [
        0
      ]
    }
  ],
  "textures": [
    {
      "sampler": 0,
      "source": 0
    }
  ]
}
