{
  "accessors": [
    {
      "bufferView": 2,
      "componentType": 5126,
      "count": 65532,
      "max": [
        5.936150074005127,
        5.49330997467041,
        5.179698944091797
      ],
      "min": [
        -6.696800231933594,
        -2.778939962387085,
        -2.4594500064849854
      ],
      "type": "VEC3"
    },
    {
      "bufferView": 2,
      "byteOffset": 786384,
      "componentType": 5126,
      "count": 65532,
      "max": [
        1.0,
        0.9999998807907104,
        1.0
      ],
      "min": [
        -0.9999992847442627,
        -0.9999999403953552,
        -0.9999966621398926
      ],
      "type": "VEC3"
    },
    {
      "bufferView": 1,
      "componentType": 5126,
      "count": 65532,
      "max": [
        0.9959779977798462,
        0.9995200037956238
      ],
      "min": [
        0.003831000067293644,
        0.003298999974504113
      ],
      "type": "VEC2"
    },
    {
      "bufferView": 0,
      "componentType": 5125,
      "count": 317067,
      "type": "SCALAR"
    },
    {
      "bufferView": 2,
      "byteOffset": 1572768,
      "componentType": 5126,
      "count": 17303,
      "max": [
        5.883669853210449,
        5.813479900360107,
        5.177101135253906
      ],
      "min": [
        -6.692500114440918,
        -2.7669899463653564,
        -2.4441800117492676
      ],
      "type": "VEC3"
    },
    {
      "bufferView": 2,
      "byteOffset": 1780404,
      "componentType": 5126,
      "count": 17303,
      "max": [
        0.9999985098838806,
        0.9999989867210388,
        1.0
      ],
      "min": [
        -0.9999990463256836,
        -0.9999999403953552,
        -0.9999040365219116
      ],
      "type": "VEC3"
    },
    {
      "bufferView": 1,
      "byteOffset": 524256,
      "componentType": 5126,
      "count": 17303,
      "max": [
        0.9866319894790649,
        0.9996899962425232
      ],
      "min": [
        2.4000000848900527e-05,
        0.003809999907389283
      ],
      "type": "VEC2"
    },
    {
      "bufferView": 0,
      "byteOffset": 1268268,
      "componentType": 5125,
      "count": 56991,
      "type": "SCALAR"
    },
    {
      "bufferView": 2,
      "byteOffset": 1988040,
      "componentType": 5126,
      "count": 61929,
      "max": [
        5.861169815063477,
        5.934919834136963,
        5.160520076751709
      ],
      "min": [
        -6.681419849395752,
        -2.7580599784851074,
        -2.4510600566864014
      ],
      "type": "VEC3"
    },
    {
      "bufferView": 2,
      "byteOffset": 2731188,
      "componentType": 5126,
      "count": 61929,
      "max": [
        0.9999864101409912,
        0.9999999403953552,
        0.9999999403953552
      ],
      "min": [
        -0.9999974966049194,
        -1.0,
        -0.9999997615814209
      ],
      "type": "VEC3"
    },
    {
      "bufferView": 1,
      "byteOffset": 662680,
      "componentType": 5126,
      "count": 61929,
      "max": [
        0.996025025844574,
        1.0006389617919922
      ],
      "min": [
        -0.0004330000083427876,
        0.003094000043347478
      ],
      "type": "VEC2"
    },
    {
      "bufferView": 0,
      "byteOffset": 1496232,
      "componentType": 5125,
      "count": 237054,
      "type": "SCALAR"
    }
  ],
  "asset": {
    "extras": {
      "author": "Maurice Svay (https://sketchfab.com/mauricesvay)",
      "license": "CC-BY-4.0 (http://creativecommons.org/licenses/by/4.0/)",
      "source": "https://sketchfab.com/3d-models/blue-room-musee-de-la-chasse-et-de-la-nature-02a9c5a9384a4d12a4cc7c32bd39a9f6",
      "title": "Blue Room - Musée de la Chasse et de la Nature"
    },
    "generator": "Sketchfab-12.66.0",
    "version": "2.0"
  },
  "bufferViews": [
    {
      "buffer": 0,
      "byteLength": 2444448,
      "name": "floatBufferViews",
      "target": 34963
    },
    {
      "buffer": 0,
      "byteLength": 1158112,
      "byteOffset": 2444448,
      "byteStride": 8,
      "name": "floatBufferViews",
      "target": 34962
    },
    {
      "buffer": 0,
      "byteLength": 3474336,
      "byteOffset": 3602560,
      "byteStride": 12,
      "name": "floatBufferViews",
      "target": 34962
    }
  ],
  "buffers": [
    {
      "byteLength": 7076896,
      "uri": "scene.bin"
    }
  ],
  "extensionsUsed": [
    "KHR_materials_unlit"
  ],
  "images": [
    {
      "uri": "textures/blueroom6_baseColor.jpeg"
    },
    {
      "uri": "textures/blueroom61_baseColor.jpeg"
    }
  ],
  "materials": [
    {
      "extensions": {
        "KHR_materials_unlit": {}
      },
      "name": "blueroom6",
      "pbrMetallicRoughness": {
        "baseColorTexture": {
          "index": 0
        },
        "metallicFactor": 0.0
      }
    },
    {
      "extensions": {
        "KHR_materials_unlit": {}
      },
      "name": "blueroom61",
      "pbrMetallicRoughness": {
        "baseColorTexture": {
          "index": 1
        },
        "metallicFactor": 0.0
      }
    }
  ],
  "meshes": [
    {
      "name": "Object_0",
      "primitives": [
        {
          "attributes": {
            "NORMAL": 1,
            "POSITION": 0,
            "TEXCOORD_0": 2
          },
          "indices": 3,
          "material": 0,
          "mode": 4
        }
      ]
    },
    {
      "name": "Object_1",
      "primitives": [
        {
          "attributes": {
            "NORMAL": 5,
            "POSITION": 4,
            "TEXCOORD_0": 6
          },
          "indices": 7,
          "material": 0,
          "mode": 4
        }
      ]
    },
    {
      "name": "Object_2",
      "primitives": [
        {
          "attributes": {
            "NORMAL": 9,
            "POSITION": 8,
            "TEXCOORD_0": 10
          },
          "indices": 11,
          "material": 1,
          "mode": 4
        }
      ]
    }
  ],
  "nodes": [
    {
      "children": [
        1
      ],
      "matrix": [
        0.5917860865592957,
        0.0,
        0.0,
        0.0,
        0.0,
        1.3140290779018918e-16,
        -0.5917860865592957,
        0.0,
        0.0,
        0.5917860865592957,
        1.3140290779018918e-16,
        0.0,
        0.0,
        0.0,
        0.0,
        1.0
      ],
      "name": "Sketchfab_model"
    },
    {
      "children": [
        2,
        3,
        4
      ],
      "name": "blueroom6.obj.cleaner.materialmerger.gles"
    },
    {
      "mesh": 0,
      "name": "Object_2"
    },
    {
      "mesh": 1,
      "name": "Object_3"
    },
    {
      "mesh": 2,
      "name": "Object_4"
    }
  ],
  "samplers": [
    {
      "magFilter": 9729,
      "minFilter": 9987,
      "wrapS": 10497,
      "wrapT": 10497
    }
  ],
  "scene": 0,
  "scenes": [
    {
      "name": "Sketchfab_Scene",
      "nodes": [
        0
      ]
    }
  ],
  "textures": [
    {
      "sampler": 0,
      "source": 0
    },
    {
      "sampler": 0,
      "source": 1
    }
  ]
}
