{
  "accessors": [
    {
      "bufferView": 2,
      "componentType": 5126,
      "count": 35846,
      "max": [
        0.37019240856170654,
        -0.018719879910349846,
        0.24102763831615448
      ],
      "min": [
        -0.4316730201244354,
        -0.7721768617630005,
        -0.38388723134994507
      ],
      "type": "VEC3"
    },
    {
      "bufferView": 2,
      "byteOffset": 430152,
      "componentType": 5126,
      "count": 35846,
      "max": [
        0.9999920725822449,
        0.9999244213104248,
        0.9999905228614807
      ],
      "min": [
        -0.9999803900718689,
        -0.9999967217445374,
        -0.9999986290931702
      ],
      "type": "VEC3"
    },
    {
      "bufferView": 1,
      "componentType": 5126,
      "count": 35846,
      "max": [
        0.9983689785003662,
        0.998885989189148
      ],
      "min": [
        0.008942469954490662,
        7.740879664197564e-05
      ],
      "type": "VEC2"
    },
    {
      "bufferView": 0,
      "componentType": 5125,
      "count": 192531,
      "type": "SCALAR"
    }
  ],
  "asset": {
    "extras": {
      "author": "emm (https://sketchfab.com/edemaistre)",
      "license": "CC-BY-4.0 (http://creativecommons.org/licenses/by/4.0/)",
      "source": "https://sketchfab.com/3d-models/day-191-a-rhinoceros-in-paris-1scanaday-337e1aba96b245448e3ba95a5fdde348",
      "title": "Day 191: A rhinoceros in Paris - 1scanaday"
    },
    "generator": "Sketchfab-12.66.0",
    "version": "2.0"
  },
  "bufferViews": [
    {
      "buffer": 0,
      "byteLength": 770124,
      "name": "floatBufferViews",
      "target": 34963
    },
    {
      "buffer": 0,
      "byteLength": 286768,
      "byteOffset": 770124,
      "byteStride": 8,
      "name": "floatBufferViews",
      "target": 34962
    },
    {
      "buffer": 0,
      "byteLength": 860304,
      "byteOffset": 1056892,
      "byteStride": 12,
      "name": "floatBufferViews",
      "target": 34962
    }
  ],
  "buffers": [
    {
      "byteLength": 1917196,
      "uri": "scene.bin"
    }
  ],
  "extensionsUsed": [
    "KHR_materials_unlit"
  ],
  "images": [
    {
      "uri": "textures/material_1_baseColor.png"
    }
  ],
  "materials": [
    {
      "doubleSided": true,
      "extensions": {
        "KHR_materials_unlit": {}
      },
      "name": "material_1",
      "pbrMetallicRoughness": {
        "baseColorTexture": {
          "index": 0
        },
        "metallicFactor": 0.0
      }
    }
  ],
  "meshes": [
    {
      "name": "Object_0",
      "primitives": [
        {
          "attributes": {
            "NORMAL": 1,
            "POSITION": 0,
            "TEXCOORD_0": 2
          },
          "indices": 3,
          "material": 0,
          "mode": 4
        }
      ]
    }
  ],
  "nodes": [
    {
      "children": [
        1
      ],
      "matrix": [
        0.9999536871910095,
        -0.009626466780900955,
        -2.1375050131890905e-18,
        0.0,
        -0.00962606817483902,
        -0.9999122619628906,
        -0.009102108888328297,
        0.0,
        8.762114157434553e-05,
        0.009101686999201997,
        -0.9999585747718811,
        0.0,
        -0.003801777260378003,
        -0.4664884209632874,
        0.3204227089881896,
        1.0
      ],
      "name": "Sketchfab_model"
    },
    {
      "children": [
        2
      ],
      "name": "rhino.obj.cleaner.materialmerger.gles"
    },
    {
      "mesh": 0,
      "name": "Object_2"
    }
  ],
  "samplers": [
    {
      "magFilter": 9729,
      "minFilter": 9987,
      "wrapS": 10497,
      "wrapT": 10497
    }
  ],
  "scene": 0,
  "scenes": [
    {
      "name": "Sketchfab_Scene",
      "nodes": [
        0
      ]
    }
  ],
  "textures": [
    {
      "sampler": 0,
      "source": 0
    }
  ]
}
